<?xml version="1.0" encoding="iso-8859-1"?>
<!-- Generator: Adobe Illustrator 19.0.0, SVG Export Plug-In . SVG Version: 6.00 Build 0)  -->
<svg version="1.1" id="Layer_1" xmlns="http://www.w3.org/2000/svg" xmlns:xlink="http://www.w3.org/1999/xlink" x="0px" y="0px"
	 viewBox="0 0 473.658 473.658" style="enable-background:new 0 0 473.658 473.658;" xml:space="preserve">
<circle style="fill:#E84849;" cx="236.829" cy="236.829" r="236.829"/>
<g>
	<path style="fill:#BB813C;" d="M360.961,293.656c0,66.4-53.832,85.113-120.236,85.113c-66.4,0-120.236-18.713-120.236-85.113
		c0-66.408,53.835-155.362,120.236-155.362C307.133,138.294,360.961,227.248,360.961,293.656z"/>
	<polygon style="fill:#BB813C;" points="238.037,134.046 241.384,134.046 257.647,134.046 296.375,85.626 296.375,67.088 
		269.599,67.088 269.599,56.573 241.384,56.573 238.037,56.573 209.822,56.573 209.822,67.088 183.046,67.088 183.046,85.626 
		221.781,134.046 	"/>
</g>
<g>
	<polygon style="fill:#A06D35;" points="269.599,67.088 244.39,129.211 285.133,67.186 	"/>
	<polygon style="fill:#A06D35;" points="210.027,67.088 235.232,129.211 194.493,67.186 	"/>
	<polygon style="fill:#A06D35;" points="222.08,165.227 238.381,148.264 212.043,165.197 	"/>
	<polygon style="fill:#A06D35;" points="260.59,165.227 244.304,148.264 270.635,165.197 	"/>
</g>
<path style="fill:#8D602F;" d="M263.616,138.889c0,2.872-2.33,5.202-5.209,5.202h-36.05c-2.879,0-5.202-2.33-5.202-5.202l0,0
	c0-2.872,2.322-5.209,5.202-5.209h36.053C261.286,133.68,263.616,136.017,263.616,138.889L263.616,138.889z"/>
<polygon style="fill:#A06D35;" points="235.845,57.119 244.39,57.119 239.551,126.698 "/>
<path style="fill:#8D602F;" d="M230.374,303.166h50.713c8.392,0,11.933,2.98,11.933,9.884v1.301c0,7.087-3.541,10.254-11.933,10.254
	h-79.059c-8.201,0-11.933-2.98-11.933-10.254v-1.301c0-6.903,3.732-9.884,11.933-9.884h4.476l4.66-24.988h-7.647
	c-5.587,0-9.319-3.358-9.319-8.582v-2.236c0-5.404,3.732-8.766,9.319-8.766h11.189l3.732-20.321
	c4.286-24.061,18.275-36.738,40.836-36.738c22.37,0,34.868,11.746,34.868,24.988c0,13.986-15.104,13.242-15.295,12.868
	c-1.862-10.254-7.647-16.6-18.646-16.6s-16.222,5.602-18.646,18.646l-3.171,17.157h24.614c5.594,0,9.327,3.358,9.327,8.766v2.236
	c0,5.411-3.732,8.582-9.327,8.582h-28.152L230.374,303.166z"/>
<g>
</g>
<g>
</g>
<g>
</g>
<g>
</g>
<g>
</g>
<g>
</g>
<g>
</g>
<g>
</g>
<g>
</g>
<g>
</g>
<g>
</g>
<g>
</g>
<g>
</g>
<g>
</g>
<g>
</g>
</svg>
