<svg xmlns="http://www.w3.org/2000/svg" xmlns:xlink="http://www.w3.org/1999/xlink" version="1.1" width="256" height="256" viewBox="0 0 256 256" xml:space="preserve">

<defs>
</defs>
<g style="stroke: none; stroke-width: 0; stroke-dasharray: none; stroke-linecap: butt; stroke-linejoin: miter; stroke-miterlimit: 10; fill: none; fill-rule: nonzero; opacity: 1;" transform="translate(1.4065934065934016 1.4065934065934016) scale(2.81 2.81)" >
	<path d="M 80.386 77.959 L 69.929 55.535 c -6.21 6.668 -15.038 10.862 -24.833 10.922 l 10.708 22.965 c 0.135 0.289 0.399 0.497 0.712 0.559 c 0.066 0.014 0.131 0.02 0.196 0.02 c 0.249 0 0.49 -0.092 0.677 -0.263 l 9.477 -8.683 l 12.742 -1.678 c 0.316 -0.041 0.594 -0.231 0.748 -0.511 C 80.51 78.585 80.521 78.248 80.386 77.959 z" style="stroke: none; stroke-width: 1; stroke-dasharray: none; stroke-linecap: butt; stroke-linejoin: miter; stroke-miterlimit: 10; fill: rgb(0,0,0); fill-rule: nonzero; opacity: 1;" transform=" matrix(1 0 0 1 0 0) " stroke-linecap="round" />
	<path d="M 44.886 66.462 c -9.8 0 -18.644 -4.145 -24.89 -10.767 L 9.614 77.959 c -0.135 0.29 -0.124 0.626 0.029 0.906 c 0.154 0.28 0.432 0.47 0.748 0.511 l 12.742 1.678 l 9.476 8.683 C 32.797 89.908 33.039 90 33.287 90 c 0.065 0 0.131 -0.006 0.196 -0.02 c 0.313 -0.062 0.577 -0.27 0.712 -0.559 l 10.707 -22.96 C 44.897 66.462 44.892 66.462 44.886 66.462 z" style="stroke: none; stroke-width: 1; stroke-dasharray: none; stroke-linecap: butt; stroke-linejoin: miter; stroke-miterlimit: 10; fill: rgb(0,0,0); fill-rule: nonzero; opacity: 1;" transform=" matrix(1 0 0 1 0 0) " stroke-linecap="round" />
	<path d="M 48.149 27.265 L 45 20.883 l -3.149 6.381 c -0.146 0.295 -0.427 0.5 -0.753 0.547 l -7.042 1.023 l 5.096 4.967 c 0.235 0.23 0.343 0.561 0.288 0.885 l -1.203 7.014 l 6.299 -3.312 c 0.291 -0.153 0.64 -0.153 0.931 0 l 6.299 3.312 l -1.203 -7.014 c -0.056 -0.324 0.052 -0.655 0.287 -0.885 l 5.096 -4.967 l -7.042 -1.023 C 48.576 27.765 48.295 27.56 48.149 27.265 z" style="stroke: none; stroke-width: 1; stroke-dasharray: none; stroke-linecap: butt; stroke-linejoin: miter; stroke-miterlimit: 10; fill: rgb(0,0,0); fill-rule: nonzero; opacity: 1;" transform=" matrix(1 0 0 1 0 0) " stroke-linecap="round" />
	<path d="M 44.886 0 c -12.75 0 -23.768 7.405 -28.995 18.148 c -2.032 4.224 -3.172 8.955 -3.172 13.947 c 0 8.262 3.123 15.805 8.247 21.521 l -0.064 0.137 c 5.9 6.571 14.458 10.706 23.984 10.706 c 17.8 0 32.229 -14.429 32.229 -32.229 S 62.686 0 44.886 0 z M 45 55.015 c -12.638 0 -22.921 -10.282 -22.921 -22.92 c 0 -0.553 0.449 -1.002 1.002 -1.002 s 1.002 0.449 1.002 1.002 c 0 11.533 9.383 20.916 20.917 20.916 c 0.553 0 1.002 0.448 1.002 1.002 S 45.553 55.015 45 55.015 z M 58.792 28.853 l -6.171 6.015 l 1.457 8.493 c 0.064 0.375 -0.09 0.754 -0.397 0.978 c -0.174 0.126 -0.381 0.191 -0.588 0.191 c -0.159 0 -0.319 -0.038 -0.465 -0.115 L 45 40.405 l -7.627 4.01 c -0.337 0.177 -0.744 0.147 -1.053 -0.076 c -0.308 -0.224 -0.462 -0.603 -0.398 -0.978 l 1.457 -8.493 l -6.17 -6.015 c -0.272 -0.266 -0.371 -0.664 -0.253 -1.025 s 0.431 -0.626 0.808 -0.681 l 8.527 -1.239 l 3.813 -7.727 c 0.168 -0.341 0.516 -0.558 0.897 -0.558 s 0.729 0.216 0.897 0.558 l 3.813 7.727 l 8.527 1.239 c 0.377 0.055 0.689 0.319 0.808 0.681 C 59.162 28.189 59.064 28.587 58.792 28.853 z M 66.918 33.096 c -0.554 0 -1.002 -0.449 -1.002 -1.002 c 0 -11.534 -9.383 -20.917 -20.916 -20.917 c -0.553 0 -1.002 -0.449 -1.002 -1.002 S 44.447 9.173 45 9.173 c 12.638 0 22.92 10.282 22.92 22.921 C 67.92 32.648 67.472 33.096 66.918 33.096 z" style="stroke: none; stroke-width: 1; stroke-dasharray: none; stroke-linecap: butt; stroke-linejoin: miter; stroke-miterlimit: 10; fill: rgb(0,0,0); fill-rule: nonzero; opacity: 1;" transform=" matrix(1 0 0 1 0 0) " stroke-linecap="round" />
</g>
</svg>