<svg xmlns="http://www.w3.org/2000/svg" xmlns:xlink="http://www.w3.org/1999/xlink" version="1.1" width="256" height="256" viewBox="0 0 256 256" xml:space="preserve">

<defs>
</defs>
<g style="stroke: none; stroke-width: 0; stroke-dasharray: none; stroke-linecap: butt; stroke-linejoin: miter; stroke-miterlimit: 10; fill: none; fill-rule: nonzero; opacity: 1;" transform="translate(1.4065934065934016 1.4065934065934016) scale(2.81 2.81)" >
	<path d="M 43.069 87.561 c -3.043 0 -5.973 -1.089 -8.816 -2.146 c -3.069 -1.141 -5.968 -2.226 -8.859 -1.962 l -8.727 0.775 V 52.522 l 5.06 -0.449 c 2.869 -0.25 5.261 0.863 7.375 1.848 c 1.902 0.886 3.548 1.659 5.398 1.532 l 13.739 -2.488 c 5.251 -0.903 8.267 2.117 9.811 4.319 l 14.24 -6.619 c 6.136 -2.759 12.993 -0.058 17.074 6.717 c 1.275 2.115 0.576 4.92 -1.559 6.252 c -1.951 1.217 -3.895 2.435 -5.818 3.64 c -16.854 10.56 -31.409 19.68 -37.833 20.241 C 43.79 87.546 43.429 87.561 43.069 87.561 z M 26.277 79.414 c 3.314 0 6.387 1.143 9.37 2.251 c 2.89 1.074 5.627 2.092 8.155 1.863 c 5.467 -0.477 21.02 -10.222 36.06 -19.646 c 1.926 -1.207 3.871 -2.426 5.824 -3.645 c 0.282 -0.176 0.398 -0.546 0.25 -0.793 c -3.034 -5.034 -7.742 -7.049 -11.986 -5.144 l -17.482 8.128 l -0.913 -1.593 c -1.881 -3.278 -3.805 -4.415 -6.622 -3.934 l -14.018 2.529 c -2.934 0.24 -5.364 -0.89 -7.503 -1.886 c -1.899 -0.886 -3.544 -1.651 -5.332 -1.489 l -1.413 0.125 v 23.676 l 4.373 -0.389 C 25.457 79.432 25.869 79.414 26.277 79.414 z" style="stroke: none; stroke-width: 1; stroke-dasharray: none; stroke-linecap: butt; stroke-linejoin: miter; stroke-miterlimit: 10; fill: rgb(0,0,0); fill-rule: nonzero; opacity: 1;" transform=" matrix(1 0 0 1 0 0) " stroke-linecap="round" />
	<path d="M 39.225 73.131 c -0.934 0 -1.769 -0.657 -1.96 -1.608 c -0.216 -1.083 0.486 -2.137 1.569 -2.353 c 5.109 -1.022 10.846 -3.313 17.491 -6.99 l -0.771 -1.344 c -0.55 -0.958 -0.219 -2.181 0.739 -2.73 c 0.958 -0.553 2.181 -0.219 2.73 0.739 l 1.773 3.09 c 0.55 0.957 0.22 2.178 -0.736 2.729 c -7.774 4.475 -14.46 7.232 -20.442 8.427 C 39.487 73.118 39.355 73.131 39.225 73.131 z" style="stroke: none; stroke-width: 1; stroke-dasharray: none; stroke-linecap: butt; stroke-linejoin: miter; stroke-miterlimit: 10; fill: rgb(0,0,0); fill-rule: nonzero; opacity: 1;" transform=" matrix(1 0 0 1 0 0) " stroke-linecap="round" />
	<path d="M 16.204 87.561 H 4.463 C 2.002 87.561 0 85.559 0 83.098 V 51.536 c 0 -2.461 2.002 -4.463 4.463 -4.463 h 11.742 c 2.461 0 4.463 2.002 4.463 4.463 v 31.562 C 20.667 85.559 18.665 87.561 16.204 87.561 z M 4.463 51.073 C 4.208 51.073 4 51.281 4 51.536 v 31.562 c 0 0.255 0.208 0.463 0.462 0.463 h 11.742 c 0.255 0 0.462 -0.208 0.462 -0.463 V 51.536 c 0 -0.255 -0.208 -0.463 -0.462 -0.463 H 4.463 z" style="stroke: none; stroke-width: 1; stroke-dasharray: none; stroke-linecap: butt; stroke-linejoin: miter; stroke-miterlimit: 10; fill: rgb(0,0,0); fill-rule: nonzero; opacity: 1;" transform=" matrix(1 0 0 1 0 0) " stroke-linecap="round" />
	<path d="M 28.517 28.87 c -3.784 0 -6.863 -3.079 -6.863 -6.863 v -2.492 c 0 -3.784 3.079 -6.863 6.863 -6.863 c 3.784 0 6.863 3.079 6.863 6.863 v 2.492 C 35.38 25.792 32.301 28.87 28.517 28.87 z M 28.517 16.653 c -1.578 0 -2.862 1.284 -2.862 2.862 v 2.492 c 0 1.579 1.284 2.863 2.862 2.863 c 1.579 0 2.863 -1.284 2.863 -2.863 v -2.492 C 31.38 17.937 30.096 16.653 28.517 16.653 z" style="stroke: none; stroke-width: 1; stroke-dasharray: none; stroke-linecap: butt; stroke-linejoin: miter; stroke-miterlimit: 10; fill: rgb(0,0,0); fill-rule: nonzero; opacity: 1;" transform=" matrix(1 0 0 1 0 0) " stroke-linecap="round" />
	<path d="M 38.367 50.513 c -1.105 0 -2 -0.896 -2 -2 V 36.357 c 0 -1.509 -1.227 -2.736 -2.736 -2.736 h -0.265 c -1.148 0.89 -2.899 1.416 -4.849 1.416 c -1.949 0 -3.7 -0.525 -4.848 -1.416 h -0.265 c -1.509 0 -2.736 1.227 -2.736 2.736 v 7.994 c 0 1.105 -0.896 2 -2 2 c -1.105 0 -2 -0.896 -2 -2 v -7.994 c 0 -3.714 3.022 -6.736 6.736 -6.736 h 1.073 c 0.644 0 1.248 0.31 1.624 0.832 c 0.134 0.143 0.985 0.584 2.417 0.584 c 1.432 0 2.283 -0.441 2.431 -0.601 c 0.376 -0.523 0.966 -0.814 1.609 -0.814 h 1.073 c 3.714 0 6.736 3.022 6.736 6.736 v 12.156 C 40.367 49.617 39.472 50.513 38.367 50.513 z" style="stroke: none; stroke-width: 1; stroke-dasharray: none; stroke-linecap: butt; stroke-linejoin: miter; stroke-miterlimit: 10; fill: rgb(0,0,0); fill-rule: nonzero; opacity: 1;" transform=" matrix(1 0 0 1 0 0) " stroke-linecap="round" />
	<path d="M 67.047 28.802 c -3.784 0 -6.864 -3.079 -6.864 -6.863 v -2.492 c 0 -3.784 3.079 -6.863 6.864 -6.863 c 3.784 0 6.863 3.079 6.863 6.863 v 2.492 C 73.91 25.723 70.832 28.802 67.047 28.802 z M 67.047 16.584 c -1.579 0 -2.863 1.284 -2.863 2.863 v 2.492 c 0 1.578 1.284 2.862 2.863 2.862 c 1.578 0 2.862 -1.284 2.862 -2.862 v -2.492 C 69.91 17.868 68.626 16.584 67.047 16.584 z" style="stroke: none; stroke-width: 1; stroke-dasharray: none; stroke-linecap: butt; stroke-linejoin: miter; stroke-miterlimit: 10; fill: rgb(0,0,0); fill-rule: nonzero; opacity: 1;" transform=" matrix(1 0 0 1 0 0) " stroke-linecap="round" />
	<path d="M 57.197 48.792 c -1.105 0 -2 -0.896 -2 -2.001 V 36.288 c 0 -3.714 3.022 -6.736 6.736 -6.736 h 1.073 c 0.644 0 1.248 0.31 1.624 0.833 c 0.134 0.143 0.985 0.583 2.417 0.583 c 1.431 0 2.282 -0.44 2.431 -0.601 c 0.375 -0.522 0.966 -0.814 1.609 -0.814 h 1.073 c 3.715 0 6.737 3.022 6.737 6.736 v 8.81 c 0 1.105 -0.896 2.001 -2 2.001 c -1.105 0 -2 -0.896 -2 -2.001 v -8.81 c 0 -1.509 -1.228 -2.736 -2.736 -2.736 h -0.265 c -1.148 0.89 -2.9 1.416 -4.849 1.416 c -1.95 0 -3.701 -0.525 -4.85 -1.416 h -0.265 c -1.508 0 -2.735 1.227 -2.735 2.736 v 10.504 C 59.197 47.897 58.302 48.792 57.197 48.792 z" style="stroke: none; stroke-width: 1; stroke-dasharray: none; stroke-linecap: butt; stroke-linejoin: miter; stroke-miterlimit: 10; fill: rgb(0,0,0); fill-rule: nonzero; opacity: 1;" transform=" matrix(1 0 0 1 0 0) " stroke-linecap="round" />
	<path d="M 47.702 18.657 c -3.784 0 -6.863 -3.079 -6.863 -6.863 V 9.302 c 0 -3.784 3.079 -6.863 6.863 -6.863 c 3.784 0 6.863 3.079 6.863 6.863 v 2.492 C 54.565 15.578 51.486 18.657 47.702 18.657 z M 47.702 6.439 c -1.578 0 -2.863 1.284 -2.863 2.863 v 2.492 c 0 1.578 1.285 2.862 2.863 2.862 c 1.578 0 2.862 -1.284 2.862 -2.862 V 9.302 C 50.564 7.723 49.28 6.439 47.702 6.439 z" style="stroke: none; stroke-width: 1; stroke-dasharray: none; stroke-linecap: butt; stroke-linejoin: miter; stroke-miterlimit: 10; fill: rgb(0,0,0); fill-rule: nonzero; opacity: 1;" transform=" matrix(1 0 0 1 0 0) " stroke-linecap="round" />
	<path d="M 57.552 28.143 c -1.105 0 -2 -0.896 -2 -2 c 0 -1.508 -1.228 -2.736 -2.736 -2.736 h -0.265 c -1.148 0.891 -2.9 1.416 -4.849 1.416 c -1.95 0 -3.701 -0.525 -4.849 -1.416 h -0.265 c -1.509 0 -2.736 1.228 -2.736 2.736 c 0 1.105 -0.896 2 -2 2 c -1.105 0 -2 -0.896 -2 -2 c 0 -3.714 3.022 -6.736 6.736 -6.736 h 1.073 c 0.644 0 1.248 0.31 1.624 0.833 c 0.134 0.143 0.985 0.583 2.417 0.583 c 1.431 0 2.282 -0.44 2.431 -0.601 c 0.375 -0.522 0.966 -0.814 1.609 -0.814 h 1.073 c 3.715 0 6.737 3.022 6.737 6.736 C 59.552 27.247 58.656 28.143 57.552 28.143 z" style="stroke: none; stroke-width: 1; stroke-dasharray: none; stroke-linecap: butt; stroke-linejoin: miter; stroke-miterlimit: 10; fill: rgb(0,0,0); fill-rule: nonzero; opacity: 1;" transform=" matrix(1 0 0 1 0 0) " stroke-linecap="round" />
</g>
</svg>