<?xml version="1.0" encoding="iso-8859-1"?>
<!-- Generator: Adobe Illustrator 19.0.0, SVG Export Plug-In . SVG Version: 6.00 Build 0)  -->
<svg version="1.1" id="Layer_1" xmlns="http://www.w3.org/2000/svg" xmlns:xlink="http://www.w3.org/1999/xlink" x="0px" y="0px"
	 viewBox="0 0 512 512" style="enable-background:new 0 0 512 512;" xml:space="preserve">
<path style="fill:#F4B2B0;" d="M380.502,441.283h-28.306v-28.53c0-53.126-43.068-96.196-96.196-96.196l0,0
	c-53.128,0-96.196,43.069-96.196,96.196v28.53h-28.306c-15.366,0-27.823,12.457-27.823,27.821l0,0
	c0,15.366,12.457,27.823,27.823,27.823h249.006c15.366,0,27.821-12.457,27.821-27.823l0,0
	C408.325,453.74,395.868,441.283,380.502,441.283z"/>
<g>
	<path style="fill:#B3404A;" d="M380.504,512H131.496c-23.652,0-42.895-19.243-42.895-42.895s19.243-42.896,42.895-42.896h13.233
		v-13.455c0-61.353,49.916-111.269,111.269-111.269s111.269,49.916,111.269,111.269v13.455h13.233
		c23.652,0,42.895,19.244,42.895,42.896S404.155,512,380.504,512z M131.496,456.356c-7.029,0-12.748,5.719-12.748,12.749
		c0,7.029,5.719,12.748,12.748,12.748h249.006c7.029,0,12.748-5.719,12.748-12.748c0-7.03-5.719-12.749-12.748-12.749h-28.306
		c-8.324,0-15.073-6.75-15.073-15.073v-28.528c0-44.732-36.392-81.122-81.122-81.122s-81.122,36.392-81.122,81.122v28.528
		c0,8.324-6.75,15.073-15.073,15.073H131.496z"/>
	<path style="fill:#B3404A;" d="M276.167,456.356h-125.89c-8.324,0-15.073-6.75-15.073-15.073c0-8.324,6.75-15.073,15.073-15.073
		h125.89c8.324,0,15.073,6.75,15.073,15.073C291.24,449.606,284.49,456.356,276.167,456.356z"/>
	<path style="fill:#B3404A;" d="M256,326.71c-80.875,0-146.672-65.796-146.672-146.672V34.666C109.328,15.55,124.879,0,143.994,0
		h224.011c19.116,0,34.666,15.55,34.666,34.666v54.598c0,8.324-6.75,15.073-15.073,15.073c-8.324,0-15.073-6.75-15.073-15.073
		V34.666c0-2.492-2.027-4.519-4.519-4.519H143.994c-2.492,0-4.519,2.027-4.519,4.519v145.371
		c0,64.252,52.273,116.525,116.525,116.525s116.525-52.273,116.525-116.525c0-8.324,6.75-15.073,15.073-15.073
		c8.324,0,15.073,6.75,15.073,15.073C402.672,260.914,336.875,326.71,256,326.71z"/>
	<path style="fill:#B3404A;" d="M433.616,209.339c-1.287,0-2.594-0.166-3.895-0.514c-8.043-2.145-12.826-10.404-10.68-18.448
		l17.916-67.176c1.21-4.539,0.264-9.278-2.599-13.002c-2.861-3.726-7.198-5.862-11.896-5.862h-34.865
		c-8.324,0-15.073-6.75-15.073-15.073s6.75-15.073,15.073-15.073h34.866c14.139,0,27.188,6.43,35.801,17.642
		c8.614,11.212,11.463,25.476,7.82,39.138l-17.916,67.176C446.373,204.887,440.277,209.339,433.616,209.339z"/>
	<path style="fill:#B3404A;" d="M78.383,209.339c-6.662,0-12.757-4.451-14.553-11.194l-17.916-67.176
		c-3.643-13.661-0.793-27.925,7.82-39.138c8.613-11.212,21.662-17.642,35.801-17.642h24.531c8.324,0,15.073,6.75,15.073,15.073
		s-6.75,15.073-15.073,15.073H89.535c-4.697,0-9.034,2.136-11.896,5.862c-2.861,3.725-3.808,8.464-2.599,13.002l17.916,67.176
		c2.146,8.045-2.636,16.303-10.68,18.448C80.977,209.173,79.669,209.337,78.383,209.339z"/>
</g>
<g>
</g>
<g>
</g>
<g>
</g>
<g>
</g>
<g>
</g>
<g>
</g>
<g>
</g>
<g>
</g>
<g>
</g>
<g>
</g>
<g>
</g>
<g>
</g>
<g>
</g>
<g>
</g>
<g>
</g>
</svg>
