<svg xmlns="http://www.w3.org/2000/svg" xmlns:xlink="http://www.w3.org/1999/xlink" version="1.1" width="256" height="256" viewBox="0 0 256 256" xml:space="preserve">

<defs>
</defs>
<g style="stroke: none; stroke-width: 0; stroke-dasharray: none; stroke-linecap: butt; stroke-linejoin: miter; stroke-miterlimit: 10; fill: none; fill-rule: nonzero; opacity: 1;" transform="translate(1.4065934065934016 1.4065934065934016) scale(2.81 2.81)" >
	<path d="M 52.552 37.239 h -4.339 c -0.655 0 -1.188 -0.532 -1.188 -1.187 v -3.366 c 0 -0.654 0.532 -1.187 1.188 -1.187 h 4.339 c 0.654 0 1.187 0.533 1.187 1.187 c 0 0.552 0.447 1 1 1 s 1 -0.448 1 -1 c 0 -1.757 -1.43 -3.187 -3.187 -3.187 h -1.17 V 27.79 c 0 -0.552 -0.447 -1 -1 -1 s -1 0.448 -1 1 v 1.708 h -1.169 c -1.758 0 -3.188 1.43 -3.188 3.187 v 3.366 c 0 1.757 1.43 3.187 3.188 3.187 h 4.339 c 0.654 0 1.187 0.533 1.187 1.187 v 3.366 c 0 0.654 -0.532 1.187 -1.187 1.187 h -4.339 c -0.655 0 -1.188 -0.533 -1.188 -1.187 c 0 -0.552 -0.447 -1 -1 -1 c -0.552 0 -1 0.448 -1 1 c 0 1.757 1.43 3.188 3.188 3.188 h 1.169 v 1.946 c 0 0.553 0.447 1 1 1 s 1 -0.447 1 -1 v -1.946 h 1.17 c 1.757 0 3.187 -1.43 3.187 -3.188 v -3.366 C 55.738 38.668 54.309 37.239 52.552 37.239 z" style="stroke: none; stroke-width: 1; stroke-dasharray: none; stroke-linecap: butt; stroke-linejoin: miter; stroke-miterlimit: 10; fill: rgb(0,0,0); fill-rule: nonzero; opacity: 1;" transform=" matrix(1 0 0 1 0 0) " stroke-linecap="round" />
	<path d="M 89.496 59.503 c -3.376 -5.601 -8.701 -8.292 -13.819 -7.215 c -0.979 -3.382 -1.429 -7.265 -1.896 -11.364 c -1.229 -10.788 -2.498 -21.942 -14.165 -24.149 c -3.605 -0.424 -4.716 -1.521 -4.713 -1.873 c 0.003 -0.236 0.721 -0.992 2.988 -1.217 c 4.681 -0.886 5.883 -4.948 6.44 -8.805 c 0.064 -0.445 -0.176 -0.879 -0.588 -1.059 c -7.972 -3.489 -16.052 -3.49 -24.022 -0.011 c -0.422 0.17 -0.683 0.609 -0.616 1.071 c 0.56 3.856 1.763 7.918 6.531 8.817 c 2.179 0.212 2.897 0.968 2.9 1.205 c 0.003 0.352 -1.107 1.449 -4.781 1.883 c -11.598 2.196 -12.869 13.351 -14.097 24.139 c -0.628 5.509 -1.24 10.716 -3.138 14.653 c -1.61 -0.673 -3.31 -1.18 -5.243 -1.004 l -2.223 0.197 v -1.967 c 0 -1.842 -1.499 -3.341 -3.341 -3.341 H 3.342 c -1.842 0 -3.341 1.499 -3.341 3.341 v 32.652 c 0 1.842 1.499 3.341 3.341 3.341 h 12.371 c 1.842 0 3.341 -1.499 3.341 -3.341 v -0.344 l 5.791 -0.514 c 3.195 -0.28 6.412 0.912 9.523 2.068 c 2.822 1.049 5.73 2.13 8.667 2.13 c 0.335 0 0.671 -0.014 1.007 -0.044 c 6.322 -0.553 21.117 -9.822 38.248 -20.557 c 1.968 -1.233 3.957 -2.479 5.953 -3.725 C 89.945 63.41 90.507 61.182 89.496 59.503 z M 31.646 41.151 c 1.199 -10.531 2.332 -20.478 12.413 -22.39 c 4.076 -0.479 6.497 -1.929 6.478 -3.878 c -0.013 -1.315 -1.256 -2.839 -4.616 -3.163 c -3.04 -0.576 -4.12 -2.854 -4.715 -6.366 c 6.981 -2.859 14.049 -2.859 21.03 0 c -0.595 3.512 -1.669 5.79 -4.626 6.354 c -3.449 0.336 -4.692 1.86 -4.705 3.175 c -0.02 1.949 2.402 3.399 6.408 3.868 c 10.15 1.922 11.283 11.869 12.482 22.399 c 0.457 4.018 0.936 8.154 1.973 11.731 c -0.135 0.055 -0.272 0.098 -0.406 0.158 l -15.394 7.156 c -1.676 -2.657 -4.437 -5.581 -9.471 -4.723 l -14.065 2.553 c -2.185 0.188 -4.084 -0.695 -6.089 -1.629 C 30.375 52.133 31.03 46.565 31.646 41.151 z M 17.055 85.457 c 0 0.739 -0.602 1.341 -1.341 1.341 H 3.342 c -0.74 0 -1.341 -0.602 -1.341 -1.341 V 52.805 c 0 -0.739 0.602 -1.341 1.341 -1.341 h 12.371 c 0.74 0 1.341 0.602 1.341 1.341 v 2.145 v 30.342 V 85.457 z M 87.185 62.775 c -1.998 1.246 -3.987 2.493 -5.957 3.727 C 65.02 76.658 49.71 86.251 43.867 86.762 c -2.834 0.253 -5.731 -0.827 -8.802 -1.968 c -2.965 -1.103 -6.019 -2.237 -9.234 -2.237 c -0.385 0 -0.773 0.017 -1.163 0.051 l -5.614 0.498 V 56.779 l 2.4 -0.213 c 2.118 -0.188 3.999 0.688 5.99 1.617 c 2.172 1.013 4.422 2.054 7.248 1.823 l 14.153 -2.564 c 4.226 -0.722 6.341 1.888 7.861 4.537 l 0.456 0.796 l 0.001 0 l 0.859 1.496 c -7.292 4.119 -13.557 6.668 -19.126 7.781 c -0.542 0.108 -0.893 0.635 -0.784 1.177 c 0.095 0.476 0.513 0.804 0.979 0.804 c 0.065 0 0.131 -0.006 0.197 -0.02 c 6.005 -1.201 12.743 -3.982 20.599 -8.503 c 0.478 -0.275 0.643 -0.887 0.368 -1.365 l -1.272 -2.217 l 15.21 -7.071 c 4.782 -2.148 10.246 0.13 13.589 5.677 C 88.234 61.283 87.965 62.288 87.185 62.775 z" style="stroke: none; stroke-width: 1; stroke-dasharray: none; stroke-linecap: butt; stroke-linejoin: miter; stroke-miterlimit: 10; fill: rgb(0,0,0); fill-rule: nonzero; opacity: 1;" transform=" matrix(1 0 0 1 0 0) " stroke-linecap="round" />
</g>
</svg>