<svg xmlns="http://www.w3.org/2000/svg" xmlns:xlink="http://www.w3.org/1999/xlink" version="1.1" width="256" height="256" viewBox="0 0 256 256" xml:space="preserve">

<defs>
</defs>
<g style="stroke: none; stroke-width: 0; stroke-dasharray: none; stroke-linecap: butt; stroke-linejoin: miter; stroke-miterlimit: 10; fill: none; fill-rule: nonzero; opacity: 1;" transform="translate(1.4065934065934016 1.4065934065934016) scale(2.81 2.81)" >
	<path d="M 80.313 77.983 L 68.984 53.691 c 5.113 -5.704 8.23 -13.232 8.23 -21.477 C 77.214 14.451 62.763 0 45 0 S 12.786 14.451 12.786 32.214 c 0 8.245 3.117 15.773 8.23 21.477 L 9.688 77.983 c -0.135 0.289 -0.124 0.625 0.029 0.904 c 0.153 0.279 0.431 0.469 0.747 0.51 l 12.716 1.675 l 9.457 8.665 C 32.822 89.908 33.064 90 33.312 90 c 0.065 0 0.13 -0.006 0.195 -0.02 c 0.312 -0.062 0.576 -0.27 0.711 -0.558 L 45 66.3 l 10.782 23.122 c 0.135 0.288 0.398 0.496 0.711 0.558 c 0.065 0.014 0.131 0.02 0.195 0.02 c 0.248 0 0.489 -0.092 0.676 -0.263 l 9.457 -8.665 l 12.716 -1.675 c 0.315 -0.041 0.593 -0.23 0.746 -0.51 S 80.447 78.272 80.313 77.983 z M 45 2 c 16.66 0 30.214 13.554 30.214 30.214 S 61.66 62.428 45 62.428 S 14.786 48.874 14.786 32.214 S 28.34 2 45 2 z M 32.981 87.342 l -8.683 -7.957 c -0.151 -0.139 -0.342 -0.228 -0.545 -0.254 l -11.676 -1.538 l 10.424 -22.355 c 5.517 5.393 12.955 8.823 21.181 9.156 L 32.981 87.342 z M 66.247 79.131 c -0.203 0.026 -0.394 0.115 -0.545 0.254 l -8.684 7.957 l -10.7 -22.948 c 8.226 -0.333 15.664 -3.764 21.181 -9.156 l 10.425 22.355 L 66.247 79.131 z" style="stroke: none; stroke-width: 1; stroke-dasharray: none; stroke-linecap: butt; stroke-linejoin: miter; stroke-miterlimit: 10; fill: rgb(0,0,0); fill-rule: nonzero; opacity: 1;" transform=" matrix(1 0 0 1 0 0) " stroke-linecap="round" />
	<path d="M 45 55.087 c -12.612 0 -22.874 -10.261 -22.874 -22.873 c 0 -0.552 0.448 -1 1 -1 s 1 0.448 1 1 c 0 11.509 9.364 20.873 20.874 20.873 c 0.552 0 1 0.447 1 1 S 45.552 55.087 45 55.087 z" style="stroke: none; stroke-width: 1; stroke-dasharray: none; stroke-linecap: butt; stroke-linejoin: miter; stroke-miterlimit: 10; fill: rgb(0,0,0); fill-rule: nonzero; opacity: 1;" transform=" matrix(1 0 0 1 0 0) " stroke-linecap="round" />
	<path d="M 66.873 33.214 c -0.553 0 -1 -0.448 -1 -1 c 0 -11.51 -9.363 -20.874 -20.873 -20.874 c -0.552 0 -1 -0.448 -1 -1 s 0.448 -1 1 -1 c 12.612 0 22.873 10.261 22.873 22.874 C 67.873 32.766 67.426 33.214 66.873 33.214 z" style="stroke: none; stroke-width: 1; stroke-dasharray: none; stroke-linecap: butt; stroke-linejoin: miter; stroke-miterlimit: 10; fill: rgb(0,0,0); fill-rule: nonzero; opacity: 1;" transform=" matrix(1 0 0 1 0 0) " stroke-linecap="round" />
	<path d="M 50.871 47 H 40.708 c -1.186 0 -2.15 -0.965 -2.15 -2.15 v -3.304 c 0 -1.186 0.964 -2.15 2.15 -2.15 h 1.129 c 0.083 0 0.15 -0.067 0.15 -0.15 v -7.703 c -0.713 0.178 -1.511 -0.034 -2.043 -0.567 l -2.336 -2.335 c -0.838 -0.838 -0.838 -2.202 0 -3.04 l 8.313 -8.313 c 0.616 -0.617 1.534 -0.8 2.342 -0.466 c 0.807 0.334 1.328 1.114 1.328 1.986 v 20.438 c 0 0.083 0.067 0.15 0.149 0.15 h 1.13 c 1.186 0 2.149 0.964 2.149 2.15 v 3.304 C 53.021 46.035 52.057 47 50.871 47 z M 40.708 41.396 c -0.083 0 -0.15 0.067 -0.15 0.15 v 3.304 c 0 0.083 0.067 0.15 0.15 0.15 h 10.163 c 0.082 0 0.149 -0.067 0.149 -0.15 v -3.304 c 0 -0.083 -0.067 -0.15 -0.149 -0.15 h -1.13 c -1.186 0 -2.149 -0.964 -2.149 -2.15 V 18.809 c 0 -0.03 0 -0.1 -0.093 -0.139 s -0.142 0.011 -0.163 0.032 l -8.313 8.313 c -0.058 0.059 -0.058 0.154 0 0.213 l 2.336 2.335 c 0.05 0.05 0.162 0.05 0.212 0 l 2.417 -2.417 v 12.1 c 0 1.186 -0.964 2.15 -2.15 2.15 H 40.708 z" style="stroke: none; stroke-width: 1; stroke-dasharray: none; stroke-linecap: butt; stroke-linejoin: miter; stroke-miterlimit: 10; fill: rgb(0,0,0); fill-rule: nonzero; opacity: 1;" transform=" matrix(1 0 0 1 0 0) " stroke-linecap="round" />
</g>
</svg>